<?xml version="1.0" encoding="utf-8"?>
<!-- Generator: Adobe Illustrator 16.0.0, SVG Export Plug-In . SVG Version: 6.00 Build 0)  -->
<!DOCTYPE svg PUBLIC "-//W3C//DTD SVG 1.1//EN" "http://www.w3.org/Graphics/SVG/1.1/DTD/svg11.dtd">
<svg version="1.1" xmlns="http://www.w3.org/2000/svg" xmlns:xlink="http://www.w3.org/1999/xlink" x="0px" y="0px" width="235px"
	 height="82.5px" viewBox="0 0 235 82.5" enable-background="new 0 0 235 82.5" xml:space="preserve">
<g id="Calque_1">
</g>
<g id="Calque_4">
</g>
<g id="aboutBack">
</g>
<g id="skillBack">
</g>
<g id="skill">
</g>
<g id="process">
</g>
<g id="aboutText">
</g>
<g id="contact">
	<g>
		<g>
			<g>
				<path fill="#FFFFFF" d="M49.727,44.358c-0.037-0.035-0.098-0.021-0.147-0.029"/>
				<path fill="#FFFFFF" d="M49.757,44.478c0.004,0.023-0.005,0.023-0.018,0.016"/>
				<path fill="#FFFFFF" d="M49.757,44.478c-0.006,0.006-0.013,0.012-0.018,0.016"/>
				<path fill="#FFFFFF" d="M49.727,44.358c0.021,0.02,0.034,0.055,0.03,0.119"/>
				<line fill="#FFFFFF" x1="49.727" y1="44.358" x2="49.757" y2="44.478"/>
				<path fill="#FFFFFF" d="M49.579,44.329c0.056,0.061,0.126,0.146,0.16,0.164"/>
				<path fill="#FFFFFF" d="M49.727,44.358l-0.657-2.567l-0.697,0.505c-0.005,0.006-0.495,0.474-1.009,0.474
					c-0.406,0-0.729-0.311-0.958-0.929c-0.014-0.039-1.474-4-2.109-6.969c-0.021-0.154-0.581-4.101-2.883-3.294
					c-0.062,0.028-1.472,0.682-2.941,2.069c-0.23-0.25-0.76-0.717-1.518-0.717c-0.604,0-1.217,0.299-1.82,0.889l-0.025,0.032
					c-0.444,0.714-1.248,1.825-1.738,2.136c-0.068-0.443-0.304-1.974-1.118-1.974c-0.162,0-0.338-0.514-0.523-0.514
					c-0.013,0-0.026,0-0.04,0c-0.474,0-1.742,1.135-3.306,5.826c-0.023,0.092-2.306,9.388-9.057,12.088
					c-0.019,0.005-1.958,0.783-4.181,0.783c-2.657,0-4.574-0.762-5.714-2.442c-0.016-0.019-1.587-1.81-1.212-4.933
					c0.002-0.025,0.063-0.593-0.291-1.005c-0.204-0.234-0.496-0.354-0.853-0.366c0,0-0.056-0.004-0.144-0.004
					c-0.274,0-1.175,0.093-1.233,1.222c-0.024,0.162-0.583,3.952,1.883,6.827c1.724,2.012,4.485,3.004,8.203,3.004h0.068
					c0.758,0,7.542-0.193,11.51-7.908c0.017-0.029,1.621-3.171,2.768-6.921c0.209-0.404,0.51-0.778,0.616-0.778
					c0,0,0.025,0.021,0.053,0.094c-0.004,0.569-0.071,8.891-0.732,11.609l-0.015,0.062l0.028,0.055
					c0.014,0.029,0.345,0.694,1.11,0.694c0.429,0,0.902-0.216,1.396-0.631l0.891-0.655l0.303-11.354
					c0.092-0.197,0.673-1.359,1.621-1.359c0.221,0,0.453,0.063,0.688,0.19c0.128,0.833,1.154,7.722,0.595,10.76l-0.012,0.062
					l0.031,0.055c0.01,0.02,0.274,0.486,0.92,0.486c0.391,0,0.686-0.173,1.178-0.521l0.695-0.657v-0.086
					c0-0.076,0.143-7.65-0.404-10.781c0.219-0.383,0.895-1.215,1.492-1.215c0.083,0,0.2,0.016,0.297,0.053
					c0.01,0.002,0.871,0.285,1.232,3.053c0.004,0.033,0.388,3.428,2.633,6.247c0.027,0.041,0.686,1.013,1.84,1.013
					c0.607,0,2.014-0.552,3.146-1.572"/>
				<path fill="#FFFFFF" d="M49.52,44.289c0.013,0.025,0.035,0.036,0.06,0.04"/>
				<path fill="#FFFFFF" d="M49.52,44.289c-0.016-0.044,0.016-0.011,0.06,0.04"/>
			</g>
			<path fill="#FFFFFF" d="M15.1,45.407l3.09-23.602L49.354,8.858l13.361,10.273l5.983,4.57c0.069-0.232,0.179-0.451,0.337-0.635
				l-5.898-4.488L49.563,8.319l-0.127-0.096l-0.148,0.061l-31.37,13.184l-0.11,0.047l-0.015,0.118l-2.981,23.645
				C14.917,45.312,15.012,45.354,15.1,45.407z"/>
			<path fill="#FFFFFF" d="M76.176,32.731c-0.193,0-0.368-0.027-0.529-0.076l-1.701,13.348l-2.087,16.723L56.35,69.312l-15.622,6.69
				L17.091,57.88c-0.042,0.064-0.086,0.127-0.139,0.185l23.765,18.018l15.776-6.429l15.734-6.47l0.15-0.062l0.022-0.164
				l2.231-16.865l1.733-13.371C76.304,32.728,76.241,32.731,76.176,32.731z"/>
			<path fill="#FFFFFF" d="M55.456,40.657c-0.113-0.156-0.76-0.913-2.638-0.913l-0.173,0.002l-0.039,0.022
				c-0.036,0.021-0.891,0.532-1.098,1.439c-0.01,0.023-0.953,2.295,1.094,3.479c0.015,0.01,0.346,0.211,0.825,0.211
				c0.555,0,1.363-0.273,2.053-1.575C55.519,43.247,56.432,41.481,55.456,40.657z M53.592,42.506c-0.266-0.259-0.897,0-0.897,0
				c-0.385-0.345-0.082-0.692-0.082-0.692c0.595-0.507,0.979,0,0.979,0C53.932,42.204,53.592,42.506,53.592,42.506z"/>
			<path fill="#FFFFFF" d="M54.808,40.387c0,0,6.186-8.044,8.586-9.86c0,0,9.755-8.825,19.315-6.922c0,0,1.686,0.476,2.594,1.384
				c0,0,0.347,1.341-0.606,2.119c0,0-2.033-1.687-4.627-1.687c0,0-6.488-0.908-13.583,4.542c0,0-6.299,4.354-10.582,11.626"/>
			<g>
				<path fill="#FFFFFF" d="M53.602,17.304c-0.85,0.09-3.706,0.341-4.546,5.958c-0.006,0.1-0.594,9.927,0.081,19.535
					c-0.125,0.118-0.672,1.72-0.672,1.72c0.065,0.094-0.047,0.783,0,0.891c0.498-0.301,0.957-0.51,2.027-1.281l2.496-3.309
					c0.089-0.092,2.211-2.255,3.246-7.82c0.073-0.371,2.078-9.098,0.994-12.957C57.157,19.8,55.931,17.304,53.602,17.304
					L53.602,17.304 M53.944,30.46c-0.302,5.947-2.37,8.712-2.458,8.827l-0.297,0.387l-0.014-0.488
					c-0.128-4.793-0.001-12.476,0-12.552c0.082-5.736,1.373-6.57,1.647-6.682c0.121-0.089,0.241-0.134,0.362-0.134
					c0.53,0,0.735,0.845,0.755,0.942C54.673,22.828,53.972,30.149,53.944,30.46z"/>
			</g>
			<g>
				<path fill="#FFFFFF" d="M51.749,43.645c0.449-0.378,1.704,0.556,2.243,0.893"/>
				<line fill="#FFFFFF" x1="54.057" y1="44.517" x2="54.242" y2="44.63"/>
				<path fill="#FFFFFF" d="M54.057,44.517c-0.022,0.008-0.044,0.016-0.065,0.021"/>
				<line fill="#FFFFFF" x1="54.222" y1="44.599" x2="54.242" y2="44.63"/>
				<path fill="#FFFFFF" d="M54.057,44.517"/>
				<path fill="#FFFFFF" d="M57.833,47.09c-0.032-0.177-0.683-3.585-1.987-4.806c-0.043-0.041-2.208,0.588-4.562,0.309
					c0.001,0.119-2.201,2.321-2.2,2.455c0.072,4.32,0.481,16.489,2.844,21.493c0.034,0.048,0.839,1.157,2.213,1.157
					c0.655,0,1.33-0.255,1.999-0.764c0.249-0.129,2.622-1.521,2.734-7.643C58.875,59.209,58.976,50.915,57.833,47.09z
					 M54.452,64.345c-0.221,0.221-0.438,0.334-0.645,0.334c-0.629,0-0.834-0.963-0.857-1.074
					c-1.243-8.184-1.557-20.295-1.562-20.416l-0.006-0.316l2.675,1.645c1.569,2.438,1.457,12.62,1.443,13.048
					C55.63,63.147,54.5,64.3,54.452,64.345z"/>
				<path fill="#FFFFFF" d="M54.242,44.63"/>
				<path fill="#FFFFFF" d="M53.992,44.537"/>
				<path fill="#FFFFFF" d="M51.749,43.645"/>
			</g>
		</g>
		<g>
			<g>
				<path fill="#FFFFFF" stroke="#FFFFFF" stroke-width="0.35" stroke-miterlimit="10" d="M90.465,43.747h-0.24v-4.691l-1.705,4.691
					h-0.253l-1.696-4.691v4.691h-0.24v-5.398h0.24l1.826,5.012l1.828-5.012h0.24V43.747z"/>
				<path fill="#FFFFFF" stroke="#FFFFFF" stroke-width="0.35" stroke-miterlimit="10" d="M99.487,43.747h-0.269l-0.703-2.067
					h-1.958l-0.709,2.067h-0.256l1.836-5.398h0.21L99.487,43.747z M98.44,41.432l-0.911-2.651l-0.894,2.651H98.44z"/>
				<path fill="#FFFFFF" stroke="#FFFFFF" stroke-width="0.35" stroke-miterlimit="10" d="M105.057,43.747h-0.237l-0.01-5.161
					h-1.403v-0.237h3.101v0.237h-1.451V43.747z"/>
				<path fill="#FFFFFF" stroke="#FFFFFF" stroke-width="0.35" stroke-miterlimit="10" d="M114.845,43.747h-0.246V40.81h-2.824
					v2.938h-0.246v-5.398h0.246v2.213h2.824v-2.213h0.246V43.747z"/>
				<path fill="#FFFFFF" stroke="#FFFFFF" stroke-width="0.35" stroke-miterlimit="10" d="M120.97,43.747h-0.248v-5.152
					l-0.617-0.016v-0.23h0.865V43.747z"/>
				<path fill="#FFFFFF" stroke="#FFFFFF" stroke-width="0.35" stroke-miterlimit="10" d="M129.192,43.747h-2.785v-5.398h0.248
					v5.164h2.537V43.747z"/>
				<path fill="#FFFFFF" stroke="#FFFFFF" stroke-width="0.35" stroke-miterlimit="10" d="M135.826,43.747h-1.603V38.34h1.449
					c0.58,0,1.026,0.159,1.33,0.478c0.306,0.32,0.46,0.745,0.46,1.274v2.112C137.462,43.233,136.916,43.747,135.826,43.747z
					 M137.214,42.158v-2.066c0-0.505-0.141-0.882-0.426-1.13c-0.286-0.251-0.633-0.376-1.038-0.376h-1.282v4.927h1.266
					c0.144,0,0.269-0.002,0.377-0.012c0.109-0.012,0.238-0.045,0.385-0.098c0.151-0.055,0.271-0.125,0.369-0.216
					c0.096-0.091,0.176-0.225,0.246-0.399C137.18,42.608,137.214,42.399,137.214,42.158z"/>
				<path fill="#FFFFFF" stroke="#FFFFFF" stroke-width="0.35" stroke-miterlimit="10" d="M145.406,43.747h-2.56v-5.398h2.576v0.237
					h-2.33v1.976h1.657l-0.084,0.248h-1.573v2.703h2.313V43.747z"/>
				<path fill="#FFFFFF" stroke="#FFFFFF" stroke-width="0.35" stroke-miterlimit="10" d="M170.801,43.747h-0.255v-5.398h2.575
					v0.246h-2.32v1.967h1.495l-0.099,0.248h-1.396V43.747z"/>
				<path fill="#FFFFFF" stroke="#FFFFFF" stroke-width="0.35" stroke-miterlimit="10" d="M181.784,43.747h-0.26l-0.904-2.091
					c-0.078,0.015-0.157,0.023-0.23,0.023h-1.705v2.067h-0.257v-5.398h1.86c0.504,0,0.878,0.146,1.121,0.445
					c0.245,0.298,0.368,0.7,0.368,1.205c0,0.849-0.307,1.381-0.919,1.597L181.784,43.747z M178.684,41.432h1.625
					c0.237,0,0.44-0.043,0.611-0.134c0.168-0.09,0.296-0.211,0.378-0.359c0.147-0.277,0.225-0.617,0.225-1.018
					s-0.106-0.722-0.319-0.965c-0.211-0.24-0.514-0.361-0.91-0.361h-1.61V41.432z"/>
				<path fill="#FFFFFF" stroke="#FFFFFF" stroke-width="0.35" stroke-miterlimit="10" d="M190.585,43.747h-0.271l-0.702-2.067
					h-1.958l-0.711,2.067h-0.254l1.836-5.398h0.208L190.585,43.747z M189.535,41.432l-0.908-2.651l-0.894,2.651H189.535z"/>
				<path fill="#FFFFFF" stroke="#FFFFFF" stroke-width="0.35" stroke-miterlimit="10" d="M197.951,43.569
					c-0.437,0.172-0.854,0.254-1.25,0.254c-0.082,0-0.205-0.006-0.374-0.022c-0.167-0.016-0.344-0.073-0.532-0.175
					c-0.188-0.098-0.341-0.258-0.454-0.479c-0.117-0.219-0.172-0.488-0.172-0.812v-2.477c0-0.389,0.054-0.685,0.164-0.887
					c0.111-0.199,0.278-0.369,0.507-0.51c0.23-0.127,0.508-0.189,0.833-0.189c0.405,0,0.769,0.084,1.085,0.254l-0.083,0.182
					c-0.34-0.137-0.656-0.206-0.949-0.206c-0.417,0-0.743,0.111-0.979,0.333c-0.094,0.087-0.172,0.213-0.236,0.379
					c-0.064,0.162-0.096,0.355-0.096,0.575v2.531c0,0.606,0.229,0.999,0.686,1.181c0.18,0.073,0.411,0.107,0.694,0.107
					c0.284,0,0.648-0.086,1.096-0.255L197.951,43.569z"/>
				<path fill="#FFFFFF" stroke="#FFFFFF" stroke-width="0.35" stroke-miterlimit="10" d="M206.33,43.747h-0.25V40.81h-2.821v2.938
					h-0.247v-5.398h0.247v2.213h2.821v-2.213h0.25V43.747z"/>
				<path fill="#FFFFFF" stroke="#FFFFFF" stroke-width="0.35" stroke-miterlimit="10" d="M215.091,39.845v2.476
					c0,0.521-0.159,0.901-0.475,1.146c-0.316,0.243-0.697,0.366-1.139,0.366c-0.439,0-0.82-0.123-1.144-0.366
					c-0.321-0.245-0.481-0.626-0.481-1.146v-2.485c0-0.529,0.143-0.93,0.435-1.202c0.289-0.272,0.69-0.407,1.2-0.407
					c0.509,0,0.902,0.142,1.183,0.432C214.95,38.942,215.091,39.34,215.091,39.845z M214.844,42.32V39.8
					c0-0.418-0.117-0.744-0.355-0.979c-0.235-0.233-0.575-0.35-1.016-0.35c-0.443,0-0.783,0.116-1.02,0.35
					c-0.236,0.234-0.355,0.562-0.355,0.982v2.517c0,0.42,0.133,0.739,0.399,0.954c0.263,0.213,0.59,0.32,0.98,0.32
					c0.392,0,0.718-0.103,0.979-0.307C214.715,43.083,214.844,42.761,214.844,42.32z"/>
				<path fill="#FFFFFF" stroke="#FFFFFF" stroke-width="0.35" stroke-miterlimit="10" d="M224.416,43.747h-0.24l-3.315-4.967v4.967
					h-0.24v-5.398h0.24l3.315,4.957v-4.957h0.24V43.747z"/>
				<path fill="#FFFFFF" stroke="#FFFFFF" stroke-width="0.35" stroke-miterlimit="10" d="M93.949,54.655h-1.604v-5.408h1.45
					c0.583,0,1.026,0.162,1.331,0.48c0.307,0.32,0.459,0.742,0.459,1.271v2.115C95.586,54.144,95.04,54.655,93.949,54.655z
					 M95.338,53.067v-2.068c0-0.502-0.142-0.879-0.428-1.128c-0.285-0.25-0.63-0.374-1.038-0.374h-1.278v4.928h1.264
					c0.144,0,0.27-0.007,0.378-0.014c0.109-0.014,0.236-0.045,0.385-0.098c0.15-0.057,0.271-0.127,0.367-0.216
					c0.094-0.093,0.177-0.226,0.247-0.402C95.304,53.517,95.338,53.308,95.338,53.067z"/>
				<path fill="#FFFFFF" stroke="#FFFFFF" stroke-width="0.35" stroke-miterlimit="10" d="M101.695,54.655h-0.248v-5.154
					l-0.616-0.012v-0.23h0.864V54.655z"/>
				<path fill="#FFFFFF" stroke="#FFFFFF" stroke-width="0.35" stroke-miterlimit="10" d="M109.547,49.626
					c-0.365-0.144-0.69-0.214-0.97-0.214c-0.207,0-0.392,0.031-0.557,0.095c-0.165,0.066-0.293,0.144-0.389,0.236
					c-0.096,0.092-0.178,0.229-0.247,0.407c-0.07,0.182-0.106,0.393-0.106,0.634v2.428c0,0.386,0.129,0.699,0.382,0.932
					c0.25,0.233,0.591,0.35,1.02,0.35c0.43,0,0.753-0.118,0.965-0.357c0.214-0.24,0.32-0.538,0.32-0.892v-0.655h-0.732l-0.091-0.246
					h1.064v2.312h-0.208l-0.042-0.555c-0.234,0.422-0.665,0.631-1.292,0.631c-0.452,0-0.837-0.127-1.155-0.385
					c-0.316-0.254-0.474-0.641-0.474-1.148v-2.422c0-0.658,0.223-1.124,0.67-1.396c0.233-0.129,0.507-0.193,0.828-0.193
					c0.394,0,0.758,0.086,1.092,0.256L109.547,49.626z"/>
				<path fill="#FFFFFF" stroke="#FFFFFF" stroke-width="0.35" stroke-miterlimit="10" d="M116.181,54.655h-0.247v-5.154
					l-0.617-0.012v-0.23h0.863V54.655z"/>
				<path fill="#FFFFFF" stroke="#FFFFFF" stroke-width="0.35" stroke-miterlimit="10" d="M122.668,54.655h-0.239l-0.007-5.158
					h-1.404v-0.238h3.101v0.238h-1.45V54.655z"/>
				<path fill="#FFFFFF" stroke="#FFFFFF" stroke-width="0.35" stroke-miterlimit="10" d="M131.924,54.655h-0.27l-0.7-2.066h-1.961
					l-0.709,2.066h-0.255l1.835-5.396h0.208L131.924,54.655z M130.874,52.343l-0.909-2.654l-0.896,2.654H130.874z"/>
				<path fill="#FFFFFF" stroke="#FFFFFF" stroke-width="0.35" stroke-miterlimit="10" d="M139.807,54.655h-2.785v-5.396h0.247
					v5.166h2.539V54.655z"/>
				<path fill="#FFFFFF" stroke="#FFFFFF" stroke-width="0.35" stroke-miterlimit="10" d="M159.569,54.655h-1.606v-5.408h1.453
					c0.58,0,1.023,0.162,1.331,0.48c0.306,0.32,0.458,0.742,0.458,1.271v2.115C161.205,54.144,160.658,54.655,159.569,54.655z
					 M160.956,53.067v-2.068c0-0.502-0.14-0.879-0.427-1.128c-0.284-0.25-0.631-0.374-1.038-0.374h-1.28v4.928h1.266
					c0.143,0,0.27-0.007,0.376-0.014c0.108-0.014,0.238-0.045,0.386-0.098c0.151-0.057,0.271-0.127,0.368-0.216
					c0.095-0.093,0.179-0.226,0.248-0.402C160.923,53.517,160.956,53.308,160.956,53.067z"/>
				<path fill="#FFFFFF" stroke="#FFFFFF" stroke-width="0.35" stroke-miterlimit="10" d="M169.151,54.655h-2.562v-5.396h2.577
					v0.238h-2.33v1.973h1.658l-0.086,0.25h-1.572v2.705h2.315V54.655z"/>
				<path fill="#FFFFFF" stroke="#FFFFFF" stroke-width="0.35" stroke-miterlimit="10" d="M174.278,53.284h0.262
					c0.011,0.303,0.152,0.584,0.426,0.834c0.273,0.257,0.643,0.385,1.114,0.385s0.854-0.105,1.149-0.311s0.442-0.533,0.442-0.98
					c0-0.245-0.08-0.459-0.242-0.634c-0.163-0.179-0.363-0.313-0.601-0.401c-0.241-0.09-0.5-0.187-0.784-0.291
					c-0.282-0.102-0.542-0.199-0.782-0.293c-0.241-0.091-0.441-0.232-0.603-0.42c-0.163-0.187-0.243-0.409-0.243-0.666
					c0-0.361,0.15-0.672,0.447-0.932c0.299-0.266,0.729-0.396,1.288-0.396c0.427,0,0.804,0.079,1.129,0.232l-0.087,0.245
					c-0.308-0.16-0.664-0.238-1.068-0.238s-0.745,0.098-1.025,0.288c-0.281,0.193-0.421,0.466-0.421,0.822
					c0,0.251,0.112,0.462,0.334,0.629c0.226,0.165,0.496,0.298,0.813,0.401c0.322,0.099,0.641,0.208,0.961,0.321
					c0.322,0.118,0.596,0.284,0.818,0.502c0.223,0.221,0.336,0.491,0.336,0.815c0,0.473-0.15,0.848-0.453,1.127
					c-0.298,0.277-0.747,0.415-1.34,0.415s-1.053-0.147-1.373-0.442C174.457,54,174.289,53.662,174.278,53.284z"/>
				<path fill="#FFFFFF" stroke="#FFFFFF" stroke-width="0.35" stroke-miterlimit="10" d="M183.828,54.655h-0.246v-5.154
					l-0.618-0.012v-0.23h0.864V54.655z"/>
				<path fill="#FFFFFF" stroke="#FFFFFF" stroke-width="0.35" stroke-miterlimit="10" d="M191.68,49.626
					c-0.365-0.144-0.688-0.214-0.97-0.214c-0.207,0-0.389,0.031-0.554,0.095c-0.168,0.066-0.296,0.144-0.391,0.236
					c-0.095,0.092-0.178,0.229-0.248,0.407c-0.067,0.182-0.104,0.393-0.104,0.634v2.428c0,0.386,0.126,0.699,0.378,0.932
					c0.253,0.233,0.594,0.35,1.024,0.35c0.427,0,0.75-0.118,0.963-0.357c0.212-0.24,0.319-0.538,0.319-0.892v-0.655h-0.734
					l-0.092-0.246h1.066v2.312h-0.208l-0.04-0.555c-0.237,0.422-0.667,0.631-1.295,0.631c-0.452,0-0.835-0.127-1.151-0.385
					c-0.317-0.254-0.474-0.641-0.474-1.148v-2.422c0-0.658,0.22-1.124,0.667-1.396c0.234-0.129,0.509-0.193,0.827-0.193
					c0.396,0,0.76,0.086,1.095,0.256L191.68,49.626z"/>
				<path fill="#FFFFFF" stroke="#FFFFFF" stroke-width="0.35" stroke-miterlimit="10" d="M201.625,54.655h-0.241l-3.315-4.967
					v4.967h-0.239v-5.396h0.239l3.315,4.957v-4.957h0.241V54.655z"/>
				<path fill="#FFFFFF" stroke="#FFFFFF" stroke-width="0.35" stroke-miterlimit="10" d="M209.823,54.655h-2.561v-5.396h2.576
					v0.238h-2.329v1.973h1.659l-0.086,0.25h-1.573v2.705h2.314V54.655z"/>
				<path fill="#FFFFFF" stroke="#FFFFFF" stroke-width="0.35" stroke-miterlimit="10" d="M218.624,54.655h-0.262l-0.903-2.088
					c-0.077,0.013-0.153,0.021-0.231,0.021h-1.704v2.066h-0.254v-5.396h1.858c0.504,0,0.878,0.148,1.123,0.446
					c0.242,0.298,0.366,0.697,0.366,1.203c0,0.849-0.306,1.378-0.918,1.597L218.624,54.655z M215.523,52.343h1.627
					c0.237,0,0.44-0.046,0.609-0.135c0.17-0.09,0.295-0.211,0.378-0.361c0.147-0.277,0.224-0.615,0.224-1.018
					c0-0.399-0.106-0.723-0.316-0.965c-0.212-0.241-0.514-0.363-0.91-0.363h-1.613V52.343z"/>
			</g>
			<path fill="#FFFFFF" stroke="#FFFFFF" stroke-width="0.35" stroke-miterlimit="10" d="M158.267,40.979
				c0-0.58-0.471-1.049-1.054-1.049c-0.583,0-1.055,0.469-1.055,1.049c0,0.582,0.473,1.057,1.055,1.057
				C157.796,42.036,158.267,41.562,158.267,40.979z"/>
		</g>
	</g>
</g>
</svg>
